# 3ds Max Wavefront OBJ Exporter v0.97b - (c)2007 guruware
# File Created: 10.07.2021 20:04:18

#
# object Object036
#

v  1.3110 1.1392 0.4749
v  1.5664 1.9245 0.3213
v  -0.0000 1.9245 0.0583
v  -0.0000 0.1936 0.2529
v  -1.5664 1.9245 0.3213
v  -1.3110 1.1392 0.4749
v  1.7885 2.9669 0.2978
v  -0.0000 2.9669 -0.0803
v  -1.7885 2.9669 0.2978
v  1.8360 3.9614 0.2592
v  -0.0000 3.9614 -0.1133
v  -1.8360 3.9614 0.2592
v  1.7305 4.6263 0.3134
v  1.4589 4.8631 0.2769
v  -1.4589 4.8631 0.2769
v  -1.7305 4.6263 0.3134
v  1.3110 1.1392 0.4187
v  -0.0000 0.1936 0.1602
v  -0.0000 1.9245 -0.1537
v  1.5664 1.9245 0.2342
v  -1.3110 1.1392 0.4187
v  -1.5664 1.9245 0.2342
v  -0.0000 2.9669 -0.2704
v  1.7885 2.9669 0.1077
v  -1.7885 2.9669 0.1077
v  -0.0000 3.9614 -0.3174
v  1.8360 3.9614 0.0551
v  -1.8360 3.9614 0.0551
v  1.4589 4.8631 0.0562
v  1.7305 4.6260 0.0971
v  -1.4589 4.8631 0.0562
v  -0.0000 4.8631 -0.2919
v  -1.7305 4.6260 0.0971
v  -0.0000 4.8631 -0.0712
v  -0.3188 3.0178 -0.1640
v  -0.2320 3.0178 -0.1511
v  -0.2320 6.9859 0.0456
v  -0.3188 6.9859 -0.1640
v  -0.0224 3.0178 -0.1457
v  -0.0224 6.9859 0.1324
v  0.1871 3.0178 -0.1511
v  0.1871 6.9859 0.0456
v  0.2740 3.0178 -0.1640
v  0.2740 6.9859 -0.1640
v  0.1871 3.0178 -0.1769
v  0.1871 6.9859 -0.3736
v  -0.0224 3.0178 -0.1823
v  -0.0224 6.9859 -0.4604
v  -0.2320 3.0178 -0.1769
v  -0.2320 6.9859 -0.3736
v  -0.1725 6.9859 -0.0139
v  -0.2347 6.9859 -0.1640
v  -0.0224 6.9859 0.0482
v  0.1276 6.9859 -0.0139
v  0.1898 6.9859 -0.1640
v  0.1276 6.9859 -0.3141
v  -0.0224 6.9859 -0.3762
v  -0.1725 6.9859 -0.3141
v  -0.1725 13.0480 -0.0139
v  -0.2347 13.0480 -0.1640
v  -0.0224 13.0480 0.0482
v  0.1276 13.0480 -0.0139
v  0.1898 13.0480 -0.1640
v  0.1276 13.0480 -0.3141
v  -0.0224 13.0480 -0.3762
v  -0.1725 13.0480 -0.3141
v  -0.0002 12.6123 -0.1627
v  -0.0002 12.7037 0.0580
v  -1.2801 14.8703 0.0580
v  -1.3507 14.9160 -0.1627
v  -0.0002 12.9245 0.1495
v  -1.1097 14.7599 0.1495
v  -0.0002 13.1453 0.0580
v  -0.9392 14.6495 0.0580
v  -0.0002 13.2367 -0.1627
v  -0.8686 14.6038 -0.1627
v  -0.0002 13.1453 -0.3835
v  -0.9392 14.6495 -0.3835
v  -0.0002 12.9245 -0.4749
v  -1.1097 14.7599 -0.4749
v  -0.0002 12.7037 -0.3835
v  -1.2801 14.8703 -0.3835
v  1.2798 14.8703 0.0580
v  1.3504 14.9160 -0.1627
v  1.1094 14.7599 0.1495
v  0.9389 14.6495 0.0580
v  0.8683 14.6038 -0.1627
v  0.9389 14.6495 -0.3835
v  1.1094 14.7599 -0.4749
v  1.2798 14.8703 -0.3835
# 90 vertices

vn -0.1990 0.1789 0.9635
vn -0.1798 0.1519 0.9719
vn -0.0053 0.1271 0.9919
vn -0.0147 0.1350 0.9907
vn 0.1960 0.1080 0.9746
vn 0.3597 0.2905 0.8867
vn -0.2036 0.0535 0.9776
vn 0.0049 0.0774 0.9970
vn 0.1948 0.0649 0.9787
vn -0.2015 -0.0259 0.9791
vn -0.0014 -0.0154 0.9999
vn 0.2043 -0.0283 0.9785
vn -0.2306 -0.1154 0.9662
vn -0.2119 -0.0920 0.9730
vn 0.2119 -0.0920 0.9730
vn 0.2306 -0.1154 0.9662
vn 0.2668 -0.2357 -0.9345
vn 0.0142 -0.2004 -0.9796
vn 0.0173 -0.1597 -0.9870
vn 0.2224 -0.2087 -0.9524
vn -0.4074 -0.3323 -0.8507
vn -0.2651 -0.1956 -0.9442
vn 0.0067 -0.0850 -0.9964
vn 0.2027 -0.1050 -0.9736
vn -0.2154 -0.1003 -0.9714
vn 0.0014 -0.0007 -1.0000
vn 0.2016 0.0100 -0.9794
vn -0.2044 0.0124 -0.9788
vn 0.2121 0.0742 -0.9744
vn 0.2310 0.0978 -0.9680
vn -0.2121 0.0742 -0.9744
vn -0.0000 0.0282 -0.9996
vn 0.5850 -0.8111 -0.0000
vn -0.0000 -1.0000 -0.0000
vn -0.5850 -0.8111 -0.0000
vn -0.9510 -0.3093 -0.0000
vn -0.9650 -0.2623 -0.0000
vn -0.9673 -0.2535 -0.0000
vn -0.9915 -0.1300 -0.0000
vn -0.9923 -0.1240 -0.0000
vn -0.9984 0.0561 -0.0000
vn -0.9985 0.0545 -0.0000
vn -0.9876 0.1567 -0.0000
vn 0.0000 1.0000 -0.0000
vn 0.9876 0.1567 -0.0000
vn 0.9984 0.0561 -0.0000
vn 0.9985 0.0545 -0.0000
vn 0.9915 -0.1300 -0.0000
vn 0.9923 -0.1240 -0.0000
vn 0.9650 -0.2623 -0.0000
vn 0.9673 -0.2535 -0.0000
vn 0.9510 -0.3093 -0.0000
vn -0.6575 0.7535 -0.0005
vn 0.6575 0.7535 -0.0005
vn 0.0000 -0.0466 0.9989
vn -0.2310 0.0978 -0.9680
vn -0.9891 -0.1462 -0.0175
vn -0.0930 -0.0591 0.9939
vn -0.6966 -0.0256 0.7170
vn -0.9999 -0.0102 -0.0060
vn 0.0065 -0.0601 0.9982
vn 0.0059 -0.0601 0.9982
vn 0.1022 -0.0251 0.9944
vn 0.6962 -0.0457 0.7164
vn 0.9891 -0.1462 0.0175
vn 0.9999 -0.0102 0.0060
vn 0.0930 -0.0591 -0.9939
vn 0.6966 -0.0256 -0.7170
vn -0.0065 -0.0601 -0.9982
vn -0.0059 -0.0601 -0.9982
vn -0.1022 -0.0251 -0.9944
vn -0.6962 -0.0457 -0.7164
vn -0.9239 0.0000 0.3827
vn -0.3827 0.0000 0.9239
vn 0.3827 -0.0000 0.9239
vn 0.9239 -0.0000 0.3827
vn 0.9239 0.0000 -0.3827
vn 0.3827 0.0000 -0.9239
vn -0.3827 0.0000 -0.9239
vn -0.9239 0.0000 -0.3827
vn 0.0000 -1.0000 -0.0000
vn 0.0018 -0.7911 0.6116
vn -0.7028 0.3939 0.5923
vn -0.8638 0.5038 -0.0008
vn 0.0048 -0.2332 0.9724
vn -0.2440 0.0887 0.9657
vn -0.0075 0.5506 0.8348
vn 0.5178 -0.2412 0.8208
vn -0.0000 1.0000 -0.0000
vn 0.8849 -0.4658 0.0035
vn 0.0075 0.5506 -0.8348
vn 0.5230 -0.2334 -0.8198
vn -0.0048 -0.2332 -0.9724
vn -0.2481 0.0843 -0.9651
vn -0.0018 -0.7911 -0.6116
vn -0.7035 0.3921 -0.5927
vn 0.7035 0.3922 0.5927
vn 0.8638 0.5038 0.0008
vn 0.2481 0.0843 0.9651
vn -0.5230 -0.2334 0.8198
vn -0.8849 -0.4658 -0.0035
vn -0.5178 -0.2412 -0.8208
vn 0.2440 0.0887 -0.9657
vn 0.7028 0.3939 -0.5924
# 104 vertex normals

vt 0.9130 0.6244 0.0000
vt 0.9350 0.6985 0.0000
vt 0.7881 0.7008 0.0000
vt 0.7881 0.5402 0.0000
vt 0.6413 0.6985 0.0000
vt 0.6633 0.6244 0.0000
vt 0.9567 0.7951 0.0000
vt 0.7881 0.7974 0.0000
vt 0.6196 0.7951 0.0000
vt 0.9611 0.8878 0.0000
vt 0.7881 0.8886 0.0000
vt 0.6151 0.8878 0.0000
vt 0.9526 0.9500 0.0000
vt 0.9272 0.9722 0.0000
vt 0.6491 0.9722 0.0000
vt 0.6237 0.9500 0.0000
vt 0.6712 0.1442 0.0000
vt 0.7975 0.0630 0.0000
vt 0.7975 0.2233 0.0000
vt 0.6486 0.2192 0.0000
vt 0.9237 0.1442 0.0000
vt 0.9463 0.2192 0.0000
vt 0.7975 0.3174 0.0000
vt 0.6289 0.3164 0.0000
vt 0.9660 0.3164 0.0000
vt 0.7975 0.4061 0.0000
vt 0.6259 0.4078 0.0000
vt 0.9690 0.4078 0.0000
vt 0.6607 0.4886 0.0000
vt 0.6368 0.4680 0.0000
vt 0.9342 0.4886 0.0000
vt 0.7975 0.4885 0.0000
vt 0.6676 0.1411 0.0000
vt 0.7975 0.0574 0.0000
vt 0.9273 0.1411 0.0000
vt 0.9538 0.2161 0.0000
vt 0.9829 0.3132 0.0000
vt 0.9872 0.4097 0.0000
vt 0.9743 0.4772 0.0000
vt 0.9581 0.4680 0.0000
vt 0.9435 0.5045 0.0000
vt 0.7975 0.5080 0.0000
vt 0.6514 0.5045 0.0000
vt 0.6206 0.4772 0.0000
vt 0.6077 0.4097 0.0000
vt 0.6120 0.3132 0.0000
vt 0.6411 0.2161 0.0000
vt 0.7881 0.9717 0.0000
vt 0.2996 0.0264 0.0000
vt 0.3083 0.0262 0.0000
vt 0.3285 0.5723 0.0000
vt 0.3003 0.5723 0.0000
vt 0.3367 0.0254 0.0000
vt 0.3567 0.5719 0.0000
vt 0.3650 0.0246 0.0000
vt 0.3864 0.5718 0.0000
vt 0.1895 0.0270 0.0000
vt 0.1984 0.0269 0.0000
vt 0.1980 0.5725 0.0000
vt 0.1683 0.5739 0.0000
vt 0.2117 0.0265 0.0000
vt 0.2245 0.5729 0.0000
vt 0.2491 0.0261 0.0000
vt 0.2493 0.5735 0.0000
vt 0.2865 0.0264 0.0000
vt 0.2740 0.5729 0.0000
vt 0.3286 0.5829 0.0000
vt 0.3012 0.5830 0.0000
vt 0.3562 0.5823 0.0000
vt 0.3809 0.5833 0.0000
vt 0.1980 0.5830 0.0000
vt 0.1739 0.5849 0.0000
vt 0.2238 0.5836 0.0000
vt 0.2493 0.5842 0.0000
vt 0.2749 0.5836 0.0000
vt 0.0641 0.9837 0.0000
vt 0.0488 0.9837 0.0000
vt 0.0488 0.4153 0.0000
vt 0.0641 0.4153 0.0000
vt 0.0336 0.9837 0.0000
vt 0.0336 0.4153 0.0000
vt 0.0183 0.9837 0.0000
vt 0.0183 0.4153 0.0000
vt 0.1404 0.9837 0.0000
vt 0.1251 0.9837 0.0000
vt 0.1251 0.4153 0.0000
vt 0.1404 0.4153 0.0000
vt 0.1099 0.9837 0.0000
vt 0.1099 0.4153 0.0000
vt 0.0946 0.9837 0.0000
vt 0.0946 0.4153 0.0000
vt 0.0793 0.9837 0.0000
vt 0.0793 0.4153 0.0000
vt 0.4821 0.9797 0.0000
vt 0.4481 0.9614 0.0000
vt 0.4643 0.7080 0.0000
vt 0.4869 0.7129 0.0000
vt 0.4280 0.9190 0.0000
vt 0.4488 0.6973 0.0000
vt 0.4126 0.8769 0.0000
vt 0.4328 0.6865 0.0000
vt 0.3899 0.8578 0.0000
vt 0.4095 0.6813 0.0000
vt 0.5786 0.8613 0.0000
vt 0.5552 0.8796 0.0000
vt 0.5419 0.6886 0.0000
vt 0.5654 0.6842 0.0000
vt 0.5383 0.9211 0.0000
vt 0.5255 0.6987 0.0000
vt 0.5168 0.9627 0.0000
vt 0.5097 0.7089 0.0000
vt 0.4687 0.4574 0.0000
vt 0.4915 0.4534 0.0000
vt 0.4528 0.4675 0.0000
vt 0.4364 0.4777 0.0000
vt 0.4129 0.4821 0.0000
vt 0.5455 0.4797 0.0000
vt 0.5689 0.4850 0.0000
vt 0.5296 0.4690 0.0000
vt 0.5141 0.4583 0.0000
vt 0.4613 0.2036 0.0000
vt 0.4960 0.1865 0.0000
vt 0.4398 0.2452 0.0000
vt 0.4229 0.2866 0.0000
vt 0.3996 0.3050 0.0000
vt 0.5656 0.2893 0.0000
vt 0.5883 0.3084 0.0000
vt 0.5501 0.2472 0.0000
vt 0.5300 0.2049 0.0000
# 129 texture coords

g Object036
s 2
f 1/1/1 2/2/2 3/3/3 4/4/4 
f 4/4/4 3/3/3 5/5/5 6/6/6 
f 2/2/2 7/7/7 8/8/8 3/3/3 
f 3/3/3 8/8/8 9/9/9 5/5/5 
f 7/7/7 10/10/10 11/11/11 8/8/8 
f 8/8/8 11/11/11 12/12/12 9/9/9 
f 10/10/10 13/13/13 14/14/14 11/11/11 
f 15/15/15 16/16/16 12/12/12 11/11/11 
s 4
f 17/17/17 18/18/18 19/19/19 20/20/20 
f 18/18/18 21/21/21 22/22/22 19/19/19 
f 20/20/20 19/19/19 23/23/23 24/24/24 
f 19/19/19 22/22/22 25/25/25 23/23/23 
f 24/24/24 23/23/23 26/26/26 27/27/27 
f 23/23/23 25/25/25 28/28/28 26/26/26 
f 27/27/27 26/26/26 29/29/29 30/30/30 
f 26/26/26 31/31/31 32/32/32 
s 8
f 1/33/33 4/34/34 18/18/34 17/17/33 
f 4/34/34 6/35/35 21/21/35 18/18/34 
s 16
f 6/35/36 5/36/37 22/22/38 21/21/36 
f 5/36/37 9/37/39 25/25/40 22/22/38 
f 9/37/39 12/38/41 28/28/42 25/25/40 
f 12/38/41 16/39/43 33/40/43 28/28/42 
s 32
f 15/41/44 34/42/44 32/32/44 31/31/44 
f 34/42/44 14/43/44 29/29/44 32/32/44 
s 64
f 13/44/45 10/45/46 27/27/47 30/30/45 
f 10/45/46 7/46/48 24/24/49 27/27/47 
f 7/46/48 2/47/50 20/20/51 24/24/49 
f 2/47/50 1/33/52 17/17/52 20/20/51 
s off
f 16/39/53 15/41/53 31/31/53 33/40/53 
f 14/43/54 13/44/54 30/30/54 29/29/54 
s 2
f 11/11/11 34/48/55 15/15/15 
f 14/14/14 34/48/55 11/11/11 
s 4
f 28/28/28 33/40/56 31/31/31 26/26/26 
f 26/26/26 32/32/32 29/29/29 
s 8
f 35/49/57 36/50/58 37/51/59 38/52/60 
f 36/50/58 39/53/61 40/54/62 37/51/59 
f 39/53/61 41/55/63 42/56/64 40/54/62 
f 41/57/63 43/58/65 44/59/66 42/60/64 
f 43/58/65 45/61/67 46/62/68 44/59/66 
f 45/61/67 47/63/69 48/64/70 46/62/68 
f 47/63/69 49/65/71 50/66/72 48/64/70 
f 49/65/71 35/49/57 38/52/60 50/66/72 
s off
f 38/52/44 37/51/44 51/67/44 52/68/44 
f 37/51/44 40/54/44 53/69/44 51/67/44 
f 40/54/44 42/56/44 54/70/44 53/69/44 
f 42/60/44 44/59/44 55/71/44 54/72/44 
f 44/59/44 46/62/44 56/73/44 55/71/44 
f 46/62/44 48/64/44 57/74/44 56/73/44 
f 48/64/44 50/66/44 58/75/44 57/74/44 
f 50/66/44 38/52/44 52/68/44 58/75/44 
f 52/76/73 51/77/73 59/78/73 60/79/73 
f 51/77/74 53/80/74 61/81/74 59/78/74 
f 53/80/75 54/82/75 62/83/75 61/81/75 
f 54/84/76 55/85/76 63/86/76 62/87/76 
f 55/85/77 56/88/77 64/89/77 63/86/77 
f 56/88/78 57/90/78 65/91/78 64/89/78 
f 57/90/79 58/92/79 66/93/79 65/91/79 
f 58/92/80 52/76/80 60/79/80 66/93/80 
s 1
f 67/94/81 68/95/82 69/96/83 70/97/84 
f 68/95/82 71/98/85 72/99/86 69/96/83 
f 71/98/85 73/100/87 74/101/88 72/99/86 
f 73/100/87 75/102/89 76/103/90 74/101/88 
f 75/104/89 77/105/91 78/106/92 76/107/90 
f 77/105/91 79/108/93 80/109/94 78/106/92 
f 79/108/93 81/110/95 82/111/96 80/109/94 
f 81/110/95 67/94/81 70/97/84 82/111/96 
f 70/97/84 69/96/83 83/112/97 84/113/98 
f 69/96/83 72/99/86 85/114/99 83/112/97 
f 72/99/86 74/101/88 86/115/100 85/114/99 
f 74/101/88 76/103/90 87/116/101 86/115/100 
f 76/107/90 78/106/92 88/117/102 87/118/101 
f 78/106/92 80/109/94 89/119/103 88/117/102 
f 80/109/94 82/111/96 90/120/104 89/119/103 
f 82/111/96 70/97/84 84/113/98 90/120/104 
f 84/113/98 83/112/97 68/121/82 67/122/81 
f 83/112/97 85/114/99 71/123/85 68/121/82 
f 85/114/99 86/115/100 73/124/87 71/123/85 
f 86/115/100 87/116/101 75/125/89 73/124/87 
f 87/118/101 88/117/102 77/126/91 75/127/89 
f 88/117/102 89/119/103 79/128/93 77/126/91 
f 89/119/103 90/120/104 81/129/95 79/128/93 
f 90/120/104 84/113/98 67/122/81 81/129/95 
# 78 polygons - 4 triangles

