# 3ds Max Wavefront OBJ Exporter v0.97b - (c)2007 guruware
# File Created: 10.07.2021 12:37:03

mtllib ??\woodenkeg.mtl

#
# object Object002
#

v  5.6838 5.2623 -0.0000
v  5.2004 0.1071 -0.0000
v  4.5037 0.1071 -2.6002
v  4.9224 5.2623 -2.8419
v  2.6002 0.1071 -4.5037
v  2.8420 5.2623 -4.9224
v  0.0000 0.1071 -5.2004
v  0.0000 5.2623 -5.6839
v  -2.6002 0.1071 -4.5037
v  -2.8420 5.2623 -4.9224
v  -4.5037 0.1071 -2.6002
v  -4.9224 5.2623 -2.8419
v  -5.2004 0.1071 -0.0000
v  -5.6838 5.2623 -0.0000
v  -4.5037 0.1071 2.6002
v  -4.9224 5.2623 2.8419
v  -2.6002 0.1071 4.5037
v  -2.8420 5.2623 4.9224
v  0.0000 0.1071 5.2004
v  0.0000 5.2623 5.6839
v  2.6002 0.1071 4.5037
v  2.8420 5.2623 4.9224
v  4.5037 0.1071 2.6002
v  4.9224 5.2623 2.8419
v  5.6838 10.4175 -0.0000
v  4.9224 10.4175 -2.8419
v  2.8420 10.4175 -4.9224
v  0.0000 10.4175 -5.6839
v  -2.8420 10.4175 -4.9224
v  -4.9224 10.4175 -2.8419
v  -5.6838 10.4175 -0.0000
v  -4.9224 10.4175 2.8419
v  -2.8420 10.4175 4.9223
v  0.0000 10.4175 5.6839
v  2.8420 10.4175 4.9224
v  4.9224 10.4175 2.8419
v  5.1824 15.5727 -0.0000
v  4.4881 15.5727 -2.5912
v  2.5913 15.5727 -4.4882
v  0.0000 15.5727 -5.1825
v  -2.5913 15.5727 -4.4882
v  -4.4881 15.5727 -2.5912
v  -5.1824 15.5727 -0.0000
v  -4.4881 15.5727 2.5912
v  -2.5913 15.5727 4.4882
v  0.0000 15.5727 5.1825
v  2.5913 15.5727 4.4882
v  4.4881 15.5727 2.5912
v  3.3772 15.5727 -1.9498
v  3.8997 15.5727 -0.0000
v  1.9499 15.5727 -3.3772
v  0.0000 15.5727 -3.8997
v  -1.9499 15.5727 -3.3772
v  -3.3772 15.5727 -1.9498
v  -3.8997 15.5727 -0.0000
v  -3.3772 15.5727 1.9498
v  -1.9499 15.5727 3.3772
v  0.0000 15.5727 3.8997
v  1.9499 15.5727 3.3772
v  3.3772 15.5727 1.9498
v  3.3772 14.4388 -1.9498
v  3.8997 14.4388 -0.0000
v  1.9499 14.4388 -3.3772
v  0.0000 14.4388 -3.8997
v  -1.9499 14.4388 -3.3772
v  -3.3772 14.4388 -1.9498
v  -3.8997 14.4388 -0.0000
v  -3.3772 14.4388 1.9498
v  -1.9499 14.4388 3.3772
v  0.0000 14.4388 3.8997
v  1.9499 14.4388 3.3772
v  3.3772 14.4388 1.9498
v  0.0000 14.4388 -0.0000
v  0.0000 0.1071 3.8940
v  1.9470 0.1071 3.3724
v  -1.9470 0.1071 3.3724
v  3.3724 0.1071 1.9470
v  3.8941 0.1071 -0.0000
v  3.3724 0.1071 -1.9471
v  1.9470 0.1071 -3.3724
v  0.0000 0.1071 -3.8941
v  -1.9470 0.1071 -3.3724
v  -3.3724 0.1071 -1.9471
v  -3.8941 0.1071 -0.0000
v  -3.3724 0.1071 1.9470
v  0.0000 1.6649 3.8940
v  1.9470 1.6649 3.3724
v  -1.9470 1.6649 3.3724
v  3.3724 1.6649 1.9470
v  3.8941 1.6649 -0.0000
v  3.3724 1.6649 -1.9471
v  1.9470 1.6649 -3.3724
v  0.0000 1.6649 -3.8941
v  -1.9470 1.6649 -3.3724
v  -3.3724 1.6649 -1.9471
v  -3.8941 1.6649 -0.0000
v  -3.3724 1.6649 1.9470
v  0.0000 1.6649 -0.0000
# 98 vertices

vn 0.9989 -0.0464 -0.0000
vn 0.9956 -0.0934 -0.0000
vn 0.8622 -0.0934 -0.4978
vn 0.8651 -0.0464 -0.4995
vn 0.4978 -0.0934 -0.8622
vn 0.4995 -0.0464 -0.8651
vn -0.0000 -0.0934 -0.9956
vn -0.0000 -0.0464 -0.9989
vn -0.4978 -0.0934 -0.8622
vn -0.4995 -0.0464 -0.8651
vn -0.8622 -0.0934 -0.4978
vn -0.8651 -0.0464 -0.4995
vn -0.9956 -0.0934 -0.0000
vn -0.9989 -0.0464 -0.0000
vn -0.8622 -0.0934 0.4978
vn -0.8651 -0.0464 0.4995
vn -0.4978 -0.0934 0.8622
vn -0.4995 -0.0464 0.8651
vn -0.0000 -0.0934 0.9956
vn -0.0000 -0.0464 0.9989
vn 0.4978 -0.0934 0.8622
vn 0.4995 -0.0464 0.8651
vn 0.8622 -0.0934 0.4978
vn 0.8651 -0.0464 0.4995
vn 0.9988 0.0481 -0.0000
vn 0.8650 0.0481 -0.4994
vn 0.4994 0.0481 -0.8650
vn 0.0000 0.0481 -0.9988
vn -0.4994 0.0481 -0.8650
vn -0.8650 0.0481 -0.4994
vn -0.9988 0.0481 -0.0000
vn -0.8650 0.0481 0.4994
vn -0.4994 0.0481 0.8650
vn -0.0000 0.0481 0.9988
vn 0.4994 0.0481 0.8650
vn 0.8650 0.0481 0.4994
vn 0.9953 0.0968 -0.0000
vn 0.8620 0.0968 -0.4976
vn 0.4977 0.0968 -0.8620
vn 0.0000 0.0968 -0.9953
vn -0.4977 0.0968 -0.8620
vn -0.8620 0.0968 -0.4976
vn -0.9953 0.0968 -0.0000
vn -0.8620 0.0968 0.4976
vn -0.4977 0.0968 0.8620
vn -0.0000 0.0968 0.9953
vn 0.4977 0.0968 0.8620
vn 0.8620 0.0968 0.4976
vn 0.0000 1.0000 -0.0000
vn -0.9659 0.0000 0.2588
vn -0.7071 0.0000 0.7071
vn -0.2588 0.0000 0.9659
vn 0.2588 0.0000 0.9659
vn 0.7071 0.0000 0.7071
vn 0.9659 0.0000 0.2588
vn 0.9659 0.0000 -0.2588
vn 0.7071 0.0000 -0.7071
vn 0.2588 0.0000 -0.9659
vn -0.2588 0.0000 -0.9659
vn -0.7071 0.0000 -0.7071
vn -0.9659 0.0000 -0.2588
vn 0.0000 -1.0000 -0.0000
# 62 vertex normals

vt 0.2714 0.1756 0.0000
vt 0.2715 0.0337 0.0000
vt 0.3498 0.0337 0.0000
vt 0.3498 0.1756 0.0000
vt 0.4282 0.0337 0.0000
vt 0.4282 0.1756 0.0000
vt 0.5066 0.0337 0.0000
vt 0.5065 0.1757 0.0000
vt 0.5849 0.0338 0.0000
vt 0.5849 0.1757 0.0000
vt 0.6633 0.0339 0.0000
vt 0.6633 0.1758 0.0000
vt 0.7416 0.0339 0.0000
vt 0.7416 0.1758 0.0000
vt 0.8199 0.0341 0.0000
vt 0.8201 0.1759 0.0000
vt 0.8964 0.0346 0.0000
vt 0.8994 0.1762 0.0000
vt 0.9708 0.0321 0.0000
vt 0.9797 0.1748 0.0000
vt 0.0334 0.1745 0.0000
vt 0.0423 0.0318 0.0000
vt 0.1167 0.0343 0.0000
vt 0.1137 0.1759 0.0000
vt 0.1932 0.0338 0.0000
vt 0.1930 0.1757 0.0000
vt 0.2714 0.3169 0.0000
vt 0.3498 0.3169 0.0000
vt 0.4282 0.3170 0.0000
vt 0.5065 0.3170 0.0000
vt 0.5849 0.3171 0.0000
vt 0.6633 0.3171 0.0000
vt 0.7416 0.3171 0.0000
vt 0.8200 0.3170 0.0000
vt 0.8993 0.3168 0.0000
vt 0.9796 0.3183 0.0000
vt 0.0334 0.3180 0.0000
vt 0.1138 0.3165 0.0000
vt 0.1930 0.3168 0.0000
vt 0.2715 0.4588 0.0000
vt 0.3498 0.4589 0.0000
vt 0.4281 0.4589 0.0000
vt 0.5065 0.4590 0.0000
vt 0.5849 0.4591 0.0000
vt 0.6633 0.4591 0.0000
vt 0.7416 0.4590 0.0000
vt 0.8198 0.4589 0.0000
vt 0.8962 0.4585 0.0000
vt 0.9703 0.4610 0.0000
vt 0.0428 0.4608 0.0000
vt 0.1169 0.4582 0.0000
vt 0.1933 0.4587 0.0000
vt 0.1271 0.5659 0.0000
vt 0.1854 0.5311 0.0000
vt 0.2000 0.5628 0.0000
vt 0.1486 0.5934 0.0000
vt 0.2497 0.5103 0.0000
vt 0.2569 0.5445 0.0000
vt 0.3166 0.5037 0.0000
vt 0.3164 0.5386 0.0000
vt 0.3835 0.5111 0.0000
vt 0.3759 0.5451 0.0000
vt 0.4475 0.5326 0.0000
vt 0.4327 0.5642 0.0000
vt 0.5055 0.5681 0.0000
vt 0.4837 0.5953 0.0000
vt 0.5536 0.6167 0.0000
vt 0.5257 0.6377 0.0000
vt 0.5883 0.6765 0.0000
vt 0.5552 0.6893 0.0000
vt 0.6041 0.7462 0.0000
vt 0.5699 0.7445 0.0000
vt 0.0264 0.7429 0.0000
vt 0.0431 0.6734 0.0000
vt 0.0760 0.6865 0.0000
vt 0.0606 0.7416 0.0000
vt 0.0784 0.6140 0.0000
vt 0.1061 0.6353 0.0000
vt 0.2128 0.5910 0.0000
vt 0.1676 0.6178 0.0000
vt 0.2633 0.5748 0.0000
vt 0.3163 0.5696 0.0000
vt 0.3692 0.5754 0.0000
vt 0.4194 0.5922 0.0000
vt 0.4643 0.6195 0.0000
vt 0.5009 0.6563 0.0000
vt 0.5263 0.7014 0.0000
vt 0.5410 0.7530 0.0000
vt 0.1047 0.6990 0.0000
vt 0.0894 0.7504 0.0000
vt 0.1306 0.6542 0.0000
vt 0.8783 0.6116 0.0000
vt 0.8668 0.6707 0.0000
vt 0.7623 0.6195 0.0000
vt 0.8272 0.7160 0.0000
vt 0.7703 0.7356 0.0000
vt 0.7112 0.7240 0.0000
vt 0.6658 0.6844 0.0000
vt 0.6463 0.6275 0.0000
vt 0.6579 0.5684 0.0000
vt 0.6974 0.5230 0.0000
vt 0.7544 0.5035 0.0000
vt 0.8134 0.5151 0.0000
vt 0.8588 0.5546 0.0000
vt 0.3797 0.8063 0.0000
vt 0.3517 0.7408 0.0000
vt 0.3860 0.7365 0.0000
vt 0.4109 0.7881 0.0000
vt 0.9799 0.7448 0.0000
vt 0.9510 0.8099 0.0000
vt 0.9201 0.7914 0.0000
vt 0.9456 0.7400 0.0000
vt 0.4219 0.8600 0.0000
vt 0.4476 0.8354 0.0000
vt 0.5332 0.9355 0.0000
vt 0.4738 0.9035 0.0000
vt 0.4938 0.8743 0.0000
vt 0.5469 0.9029 0.0000
vt 0.5975 0.9552 0.0000
vt 0.6046 0.9204 0.0000
vt 0.6644 0.9620 0.0000
vt 0.6646 0.9266 0.0000
vt 0.7313 0.9560 0.0000
vt 0.7247 0.9212 0.0000
vt 0.7959 0.9372 0.0000
vt 0.7826 0.9044 0.0000
vt 0.8557 0.9060 0.0000
vt 0.8361 0.8765 0.0000
vt 0.9081 0.8631 0.0000
vt 0.8827 0.8382 0.0000
vt 0.4227 0.7173 0.0000
vt 0.4473 0.7650 0.0000
vt 0.8840 0.7678 0.0000
vt 0.9091 0.7204 0.0000
vt 0.4785 0.8060 0.0000
vt 0.5178 0.8391 0.0000
vt 0.5633 0.8636 0.0000
vt 0.6130 0.8787 0.0000
vt 0.6649 0.8840 0.0000
vt 0.7168 0.8794 0.0000
vt 0.7667 0.8649 0.0000
vt 0.8125 0.8410 0.0000
vt 0.8523 0.8084 0.0000
vt 0.3067 0.9245 0.0000
vt 0.2539 0.9531 0.0000
vt 0.2270 0.8401 0.0000
vt 0.1938 0.9514 0.0000
vt 0.3383 0.8733 0.0000
vt 0.3114 0.7603 0.0000
vt 0.3399 0.8132 0.0000
vt 0.2602 0.7288 0.0000
vt 0.2001 0.7271 0.0000
vt 0.1472 0.7557 0.0000
vt 0.1157 0.8069 0.0000
vt 0.1140 0.8670 0.0000
vt 0.1426 0.9199 0.0000
# 156 texture coords

g Object002
usemtl 01___Default
s 8
f 1/1/1 2/2/2 3/3/3 4/4/4 
f 4/4/4 3/3/3 5/5/5 6/6/6 
f 6/6/6 5/5/5 7/7/7 8/8/8 
f 8/8/8 7/7/7 9/9/9 10/10/10 
f 10/10/10 9/9/9 11/11/11 12/12/12 
f 12/12/12 11/11/11 13/13/13 14/14/14 
f 14/14/14 13/13/13 15/15/15 16/16/16 
f 16/16/16 15/15/15 17/17/17 18/18/18 
f 18/18/18 17/17/17 19/19/19 20/20/20 
f 20/21/20 19/22/19 21/23/21 22/24/22 
f 22/24/22 21/23/21 23/25/23 24/26/24 
f 24/26/24 23/25/23 2/2/2 1/1/1 
f 25/27/25 1/1/1 4/4/4 26/28/26 
f 26/28/26 4/4/4 6/6/6 27/29/27 
f 27/29/27 6/6/6 8/8/8 28/30/28 
f 28/30/28 8/8/8 10/10/10 29/31/29 
f 29/31/29 10/10/10 12/12/12 30/32/30 
f 30/32/30 12/12/12 14/14/14 31/33/31 
f 31/33/31 14/14/14 16/16/16 32/34/32 
f 32/34/32 16/16/16 18/18/18 33/35/33 
f 33/35/33 18/18/18 20/20/20 34/36/34 
f 34/37/34 20/21/20 22/24/22 35/38/35 
f 35/38/35 22/24/22 24/26/24 36/39/36 
f 36/39/36 24/26/24 1/1/1 25/27/25 
f 37/40/37 25/27/25 26/28/26 38/41/38 
f 38/41/38 26/28/26 27/29/27 39/42/39 
f 39/42/39 27/29/27 28/30/28 40/43/40 
f 40/43/40 28/30/28 29/31/29 41/44/41 
f 41/44/41 29/31/29 30/32/30 42/45/42 
f 42/45/42 30/32/30 31/33/31 43/46/43 
f 43/46/43 31/33/31 32/34/32 44/47/44 
f 44/47/44 32/34/32 33/35/33 45/48/45 
f 45/48/45 33/35/33 34/36/34 46/49/46 
f 46/50/46 34/37/34 35/38/35 47/51/47 
f 47/51/47 35/38/35 36/39/36 48/52/48 
f 48/52/48 36/39/36 25/27/25 37/40/37 
s off
f 37/53/49 38/54/49 49/55/49 50/56/49 
f 38/54/49 39/57/49 51/58/49 49/55/49 
f 39/57/49 40/59/49 52/60/49 51/58/49 
f 40/59/49 41/61/49 53/62/49 52/60/49 
f 41/61/49 42/63/49 54/64/49 53/62/49 
f 42/63/49 43/65/49 55/66/49 54/64/49 
f 43/65/49 44/67/49 56/68/49 55/66/49 
f 44/67/49 45/69/49 57/70/49 56/68/49 
f 45/69/49 46/71/49 58/72/49 57/70/49 
f 46/73/49 47/74/49 59/75/49 58/76/49 
f 47/74/49 48/77/49 60/78/49 59/75/49 
f 48/77/49 37/53/49 50/56/49 60/78/49 
f 50/56/50 49/55/50 61/79/50 62/80/50 
f 49/55/51 51/58/51 63/81/51 61/79/51 
f 51/58/52 52/60/52 64/82/52 63/81/52 
f 52/60/53 53/62/53 65/83/53 64/82/53 
f 53/62/54 54/64/54 66/84/54 65/83/54 
f 54/64/55 55/66/55 67/85/55 66/84/55 
f 55/66/56 56/68/56 68/86/56 67/85/56 
f 56/68/57 57/70/57 69/87/57 68/86/57 
f 57/70/58 58/72/58 70/88/58 69/87/58 
f 58/76/59 59/75/59 71/89/59 70/90/59 
f 59/75/60 60/78/60 72/91/60 71/89/60 
f 60/78/61 50/56/61 62/80/61 72/91/61 
f 62/92/49 61/93/49 73/94/49 
f 61/93/49 63/95/49 73/94/49 
f 63/95/49 64/96/49 73/94/49 
f 64/96/49 65/97/49 73/94/49 
f 65/97/49 66/98/49 73/94/49 
f 66/98/49 67/99/49 73/94/49 
f 67/99/49 68/100/49 73/94/49 
f 68/100/49 69/101/49 73/94/49 
f 69/101/49 70/102/49 73/94/49 
f 70/102/49 71/103/49 73/94/49 
f 71/103/49 72/104/49 73/94/49 
f 72/104/49 62/92/49 73/94/49 
f 21/105/62 19/106/62 74/107/62 75/108/62 
f 19/109/62 17/110/62 76/111/62 74/112/62 
f 23/113/62 21/105/62 75/108/62 77/114/62 
f 3/115/62 2/116/62 78/117/62 79/118/62 
f 5/119/62 3/115/62 79/118/62 80/120/62 
f 7/121/62 5/119/62 80/120/62 81/122/62 
f 9/123/62 7/121/62 81/122/62 82/124/62 
f 11/125/62 9/123/62 82/124/62 83/126/62 
f 13/127/62 11/125/62 83/126/62 84/128/62 
f 15/129/62 13/127/62 84/128/62 85/130/62 
f 17/110/62 15/129/62 85/130/62 76/111/62 
f 2/116/62 23/113/62 77/114/62 78/117/62 
f 75/108/59 74/107/59 86/131/59 87/132/59 
f 74/112/58 76/111/58 88/133/58 86/134/58 
f 77/114/60 75/108/60 87/132/60 89/135/60 
f 79/118/50 78/117/50 90/136/50 91/137/50 
f 80/120/51 79/118/51 91/137/51 92/138/51 
f 81/122/52 80/120/52 92/138/52 93/139/52 
f 82/124/53 81/122/53 93/139/53 94/140/53 
f 83/126/54 82/124/54 94/140/54 95/141/54 
f 84/128/55 83/126/55 95/141/55 96/142/55 
f 85/130/56 84/128/56 96/142/56 97/143/56 
f 76/111/57 85/130/57 97/143/57 88/133/57 
f 78/117/61 77/114/61 89/135/61 90/136/61 
f 87/144/62 86/145/62 98/146/62 
f 86/145/62 88/147/62 98/146/62 
f 89/148/62 87/144/62 98/146/62 
f 91/149/62 90/150/62 98/146/62 
f 92/151/62 91/149/62 98/146/62 
f 93/152/62 92/151/62 98/146/62 
f 94/153/62 93/152/62 98/146/62 
f 95/154/62 94/153/62 98/146/62 
f 96/155/62 95/154/62 98/146/62 
f 97/156/62 96/155/62 98/146/62 
f 88/147/62 97/156/62 98/146/62 
f 90/150/62 89/148/62 98/146/62 
# 84 polygons - 24 triangles

