# 3ds Max Wavefront OBJ Exporter v0.97b - (c)2007 guruware
# File Created: 30.08.2021 15:32:37

#
# object Box016
#

v  -7.4483 0.0000 21.0672
v  -7.4483 3.9915 21.0672
v  -8.6956 3.9915 21.0672
v  -8.6956 0.0000 21.0672
v  -7.4483 3.9915 15.5977
v  -8.6956 3.9915 15.5977
v  -7.4483 7.8471 15.5977
v  -8.6956 7.8471 15.5977
v  -7.4483 11.7027 10.1283
v  -7.4483 11.7027 4.6588
v  -8.6956 11.7027 4.6588
v  -8.6956 11.7027 10.1283
v  -7.4483 15.5583 4.6588
v  -8.6956 15.5583 4.6588
v  -7.4483 15.5583 -0.8107
v  -8.6956 15.5583 -0.8107
v  -7.4483 0.0000 16.9785
v  -7.4483 3.9915 11.5091
v  -7.4483 7.8471 10.1283
v  -7.4483 7.8471 6.0396
v  -7.4483 11.7027 0.5701
v  -7.4483 15.5583 -4.8993
v  -7.4483 19.4139 -0.8107
v  -7.4483 19.4139 -10.3688
v  -8.6956 7.8471 10.1283
v  -8.6956 19.4139 -0.8107
v  -8.6956 0.0000 16.9785
v  -8.6956 3.9915 11.5091
v  -8.6956 7.8471 6.0396
v  -8.6956 11.7027 0.5701
v  -8.6956 15.5583 -4.8993
v  -8.6956 19.4139 -10.3688
v  -8.9602 4.0033 21.2726
v  -8.9602 4.0033 15.6639
v  9.1506 4.0033 15.6639
v  9.1506 4.0033 21.2726
v  -8.9602 5.0907 21.2726
v  9.1506 5.0907 21.2726
v  9.1506 5.0907 15.6639
v  -8.9602 5.0907 15.6639
v  -8.8803 15.5390 4.8824
v  -8.8803 15.5390 -0.7264
v  9.2305 15.5390 -0.7264
v  9.2305 15.5390 4.8824
v  -8.8803 16.6264 4.8824
v  9.2305 16.6264 4.8824
v  9.2305 16.6264 -0.7264
v  -8.8803 16.6264 -0.7264
v  -9.0554 19.4117 -0.8008
v  -9.0554 19.4117 -10.6649
v  9.0554 19.4117 -10.6649
v  9.0554 19.4117 -0.8008
v  -9.0554 20.4991 -0.8008
v  9.0554 20.4991 -0.8008
v  9.0554 20.4991 -10.6649
v  -9.0554 20.4991 -10.6649
v  -8.5547 0.0000 9.0246
v  -7.5539 0.0000 9.0246
v  -7.5539 8.4419 9.0246
v  -8.5547 8.4419 9.0246
v  -7.5539 0.0000 6.3385
v  -7.5539 8.4419 6.3385
v  -8.5547 0.0000 6.3385
v  -8.5547 8.4419 6.3385
v  -8.5547 0.0000 -7.8584
v  -7.5539 0.0000 -7.8584
v  -7.5539 19.6590 -7.8584
v  -8.5547 19.6590 -7.8584
v  -7.5539 0.0000 -10.5446
v  -7.5539 19.6590 -10.5446
v  -8.5547 0.0000 -10.5446
v  -8.5547 19.6590 -10.5446
v  9.1104 0.0000 21.0672
v  9.1104 3.9915 21.0672
v  7.8631 3.9915 21.0672
v  7.8631 0.0000 21.0672
v  9.1104 3.9915 15.5977
v  7.8631 3.9915 15.5977
v  9.1104 7.8471 15.5977
v  7.8631 7.8471 15.5977
v  9.1104 11.7027 10.1283
v  9.1104 11.7027 4.6588
v  7.8631 11.7027 4.6588
v  7.8631 11.7027 10.1283
v  9.1104 15.5583 4.6588
v  7.8631 15.5583 4.6588
v  9.1104 15.5583 -0.8107
v  7.8631 15.5583 -0.8107
v  9.1104 0.0000 16.9785
v  9.1104 3.9915 11.5091
v  9.1104 7.8471 10.1283
v  9.1104 7.8471 6.0396
v  9.1104 11.7027 0.5701
v  9.1104 15.5583 -4.8993
v  9.1104 19.4139 -0.8107
v  9.1104 19.4139 -10.3688
v  7.8631 7.8471 10.1283
v  7.8631 19.4139 -0.8107
v  7.8631 0.0000 16.9785
v  7.8631 3.9915 11.5091
v  7.8631 7.8471 6.0396
v  7.8631 11.7027 0.5701
v  7.8631 15.5583 -4.8993
v  7.8631 19.4139 -10.3688
v  8.0040 0.0000 9.0246
v  9.0048 0.0000 9.0246
v  9.0048 8.4419 9.0246
v  8.0040 8.4419 9.0246
v  9.0048 0.0000 6.3385
v  9.0048 8.4419 6.3385
v  8.0040 0.0000 6.3385
v  8.0040 8.4419 6.3385
v  8.0040 0.0000 -7.8584
v  9.0048 0.0000 -7.8584
v  9.0048 19.6590 -7.8584
v  8.0040 19.6590 -7.8584
v  9.0048 0.0000 -10.5446
v  9.0048 19.6590 -10.5446
v  8.0040 0.0000 -10.5446
v  8.0040 19.6590 -10.5446
v  -8.9293 7.7745 15.7862
v  -8.9293 7.7745 10.1774
v  9.1815 7.7745 10.1774
v  9.1815 7.7745 15.7862
v  -8.9293 8.8619 15.7862
v  9.1815 8.8619 15.7862
v  9.1815 8.8619 10.1774
v  -8.9293 8.8619 10.1774
v  -8.9600 11.7026 10.2506
v  -8.9600 11.7026 4.6418
v  9.1508 11.7026 4.6418
v  9.1508 11.7026 10.2506
v  -8.9600 12.7900 10.2506
v  9.1508 12.7900 10.2506
v  9.1508 12.7900 4.6418
v  -8.9600 12.7900 4.6418
# 136 vertices

vn 0.0000 0.0000 1.0000
vn -0.0000 1.0000 -0.0000
vn 0.0000 1.0000 -0.0000
vn 1.0000 -0.0000 -0.0000
vn 1.0000 0.0000 -0.0000
vn -1.0000 0.0000 -0.0000
vn 0.0000 -1.0000 -0.0000
vn 0.0000 0.0000 -1.0000
vn 0.0000 -0.0000 1.0000
# 9 vertex normals

vt 0.0428 0.0062 0.0000
vt 0.0428 0.0914 0.0000
vt 0.0104 0.0914 0.0000
vt 0.0104 0.0062 0.0000
vt 0.0428 0.1909 0.0000
vt 0.0104 0.1909 0.0000
vt 0.0428 0.2732 0.0000
vt 0.0104 0.2732 0.0000
vt 0.0427 0.4549 0.0000
vt 0.0427 0.5545 0.0000
vt 0.0104 0.5545 0.0000
vt 0.0104 0.4549 0.0000
vt 0.0427 0.6367 0.0000
vt 0.0104 0.6367 0.0000
vt 0.0427 0.7363 0.0000
vt 0.0104 0.7363 0.0000
vt 0.1714 0.9331 0.0000
vt 0.1057 0.9873 0.0000
vt 0.0584 0.9299 0.0000
vt 0.1081 0.8563 0.0000
vt 0.0607 0.7989 0.0000
vt 0.1715 0.8039 0.0000
vt 0.1082 0.7272 0.0000
vt 0.0608 0.6698 0.0000
vt 0.1716 0.6748 0.0000
vt 0.1083 0.5981 0.0000
vt 0.0609 0.5407 0.0000
vt 0.1717 0.5457 0.0000
vt 0.1084 0.4690 0.0000
vt 0.0610 0.4116 0.0000
vt 0.1718 0.4166 0.0000
vt 0.0611 0.2825 0.0000
vt 0.0428 0.3727 0.0000
vt 0.0104 0.3727 0.0000
vt 0.0427 0.8185 0.0000
vt 0.0104 0.8185 0.0000
vt 0.1438 0.8671 0.0000
vt 0.2568 0.8640 0.0000
vt 0.2094 0.9213 0.0000
vt 0.2072 0.7904 0.0000
vt 0.2546 0.7330 0.0000
vt 0.1438 0.7379 0.0000
vt 0.2072 0.6613 0.0000
vt 0.2546 0.6039 0.0000
vt 0.1438 0.6088 0.0000
vt 0.2072 0.5321 0.0000
vt 0.2547 0.4748 0.0000
vt 0.1439 0.4797 0.0000
vt 0.2073 0.4030 0.0000
vt 0.2547 0.3457 0.0000
vt 0.1439 0.3506 0.0000
vt 0.2547 0.2166 0.0000
vt 0.0427 0.9924 0.0000
vt 0.0104 0.9924 0.0000
vt 0.5016 0.6981 0.0000
vt 0.5016 0.5960 0.0000
vt 0.9709 0.5960 0.0000
vt 0.9709 0.6981 0.0000
vt 0.9542 0.5611 0.0000
vt 0.4848 0.5611 0.0000
vt 0.4848 0.4591 0.0000
vt 0.9542 0.4591 0.0000
vt 0.9542 0.5843 0.0000
vt 0.4848 0.5843 0.0000
vt 0.4616 0.5611 0.0000
vt 0.4616 0.4591 0.0000
vt 0.4848 0.4359 0.0000
vt 0.9542 0.4359 0.0000
vt 0.9774 0.4591 0.0000
vt 0.9774 0.5611 0.0000
vt 0.5176 0.9855 0.0000
vt 0.5176 0.8835 0.0000
vt 0.9869 0.8835 0.0000
vt 0.9869 0.9855 0.0000
vt 0.9676 0.8370 0.0000
vt 0.4983 0.8370 0.0000
vt 0.4983 0.7350 0.0000
vt 0.9676 0.7350 0.0000
vt 0.9676 0.8602 0.0000
vt 0.4983 0.8602 0.0000
vt 0.4751 0.8370 0.0000
vt 0.4751 0.7350 0.0000
vt 0.4983 0.7118 0.0000
vt 0.9676 0.7118 0.0000
vt 0.9908 0.7350 0.0000
vt 0.9908 0.8370 0.0000
vt 0.5056 0.4236 0.0000
vt 0.5056 0.2441 0.0000
vt 0.9749 0.2441 0.0000
vt 0.9749 0.4236 0.0000
vt 0.9665 0.2117 0.0000
vt 0.4972 0.2117 0.0000
vt 0.4972 0.0322 0.0000
vt 0.9665 0.0322 0.0000
vt 0.9665 0.2349 0.0000
vt 0.4972 0.2349 0.0000
vt 0.4740 0.2117 0.0000
vt 0.4740 0.0322 0.0000
vt 0.4972 0.0090 0.0000
vt 0.9665 0.0090 0.0000
vt 0.9897 0.0322 0.0000
vt 0.9897 0.2117 0.0000
vt 0.3558 0.5503 0.0000
vt 0.3299 0.5503 0.0000
vt 0.3299 0.3702 0.0000
vt 0.3558 0.3702 0.0000
vt 0.2810 0.5503 0.0000
vt 0.2810 0.3702 0.0000
vt 0.4306 0.5503 0.0000
vt 0.4047 0.5503 0.0000
vt 0.4047 0.3702 0.0000
vt 0.4306 0.3702 0.0000
vt 0.3538 0.9885 0.0000
vt 0.3279 0.9885 0.0000
vt 0.3279 0.5690 0.0000
vt 0.3538 0.5690 0.0000
vt 0.2790 0.9885 0.0000
vt 0.2790 0.5690 0.0000
vt 0.4286 0.9885 0.0000
vt 0.4027 0.9885 0.0000
vt 0.4027 0.5690 0.0000
vt 0.4286 0.5690 0.0000
# 122 texture coords

g Box016
s off
f 1/1/1 2/2/1 3/3/1 4/4/1 
f 5/5/2 6/6/2 3/3/2 2/2/2 
f 7/7/1 8/8/1 6/6/1 5/5/1 
f 9/9/3 10/10/3 11/11/3 12/12/3 
f 13/13/1 14/14/1 11/11/1 10/10/1 
f 15/15/3 16/16/3 14/14/3 13/13/3 
f 2/17/4 1/18/4 17/19/4 
f 5/20/4 2/17/4 17/19/4 18/21/4 
f 7/22/5 5/20/5 18/21/5 
f 19/23/5 7/22/5 18/21/5 20/24/5 
f 9/25/5 19/23/5 20/24/5 
f 10/26/5 9/25/5 20/24/5 21/27/5 
f 13/28/5 10/26/5 21/27/5 
f 15/29/5 13/28/5 21/27/5 22/30/5 
f 23/31/5 15/29/5 22/30/5 
f 23/31/5 22/30/5 24/32/5 
f 8/8/3 7/7/3 19/33/3 25/34/3 
f 19/33/1 9/9/1 12/12/1 25/34/1 
f 16/16/1 15/15/1 23/35/1 26/36/1 
f 3/37/6 27/38/6 4/39/6 
f 6/40/6 28/41/6 27/38/6 3/37/6 
f 8/42/6 28/41/6 6/40/6 
f 25/43/6 29/44/6 28/41/6 8/42/6 
f 12/45/6 29/44/6 25/43/6 
f 11/46/6 30/47/6 29/44/6 12/45/6 
f 14/48/6 30/47/6 11/46/6 
f 16/49/6 31/50/6 30/47/6 14/48/6 
f 26/51/6 31/50/6 16/49/6 
f 32/52/6 31/50/6 26/51/6 
s 1
f 26/36/3 23/35/3 24/53/3 32/54/3 
s 2
f 33/55/7 34/56/7 35/57/7 36/58/7 
s 4
f 37/59/3 38/60/3 39/61/3 40/62/3 
s 8
f 33/63/1 36/64/1 38/60/1 37/59/1 
s 16
f 36/65/5 35/66/5 39/61/5 38/60/5 
s 32
f 35/67/8 34/68/8 40/62/8 39/61/8 
s 64
f 34/69/6 33/70/6 37/59/6 40/62/6 
s 2
f 41/71/7 42/72/7 43/73/7 44/74/7 
s 4
f 45/75/3 46/76/3 47/77/3 48/78/3 
s 8
f 41/79/1 44/80/1 46/76/1 45/75/1 
s 16
f 44/81/5 43/82/5 47/77/5 46/76/5 
s 32
f 43/83/8 42/84/8 48/78/8 47/77/8 
s 64
f 42/85/6 41/86/6 45/75/6 48/78/6 
s 2
f 49/87/7 50/88/7 51/89/7 52/90/7 
s 4
f 53/91/3 54/92/3 55/93/3 56/94/3 
s 8
f 49/95/1 52/96/1 54/92/1 53/91/1 
s 16
f 52/97/5 51/98/5 55/93/5 54/92/5 
s 32
f 51/99/8 50/100/8 56/94/8 55/93/8 
s 64
f 50/101/6 49/102/6 53/91/6 56/94/6 
s 8
f 57/103/1 58/104/1 59/105/1 60/106/1 
s 16
f 58/104/5 61/107/5 62/108/5 59/105/5 
s 32
f 61/109/8 63/110/8 64/111/8 62/112/8 
s 64
f 63/110/6 57/103/6 60/106/6 64/111/6 
s 8
f 65/113/9 66/114/9 67/115/9 68/116/9 
s 16
f 66/114/5 69/117/5 70/118/5 67/115/5 
s 32
f 69/119/8 71/120/8 72/121/8 70/122/8 
s 64
f 71/120/6 65/113/6 68/116/6 72/121/6 
s off
f 73/1/1 74/2/1 75/3/1 76/4/1 
f 77/5/3 78/6/3 75/3/3 74/2/3 
f 79/7/1 80/8/1 78/6/1 77/5/1 
f 81/9/3 82/10/3 83/11/3 84/12/3 
f 85/13/1 86/14/1 83/11/1 82/10/1 
f 87/15/3 88/16/3 86/14/3 85/13/3 
f 74/17/4 73/18/4 89/19/4 
f 77/20/4 74/17/4 89/19/4 90/21/4 
f 79/22/5 77/20/5 90/21/5 
f 91/23/5 79/22/5 90/21/5 92/24/5 
f 81/25/5 91/23/5 92/24/5 
f 82/26/5 81/25/5 92/24/5 93/27/5 
f 85/28/5 82/26/5 93/27/5 
f 87/29/5 85/28/5 93/27/5 94/30/5 
f 95/31/5 87/29/5 94/30/5 
f 95/31/5 94/30/5 96/32/5 
f 80/8/3 79/7/3 91/33/3 97/34/3 
f 91/33/1 81/9/1 84/12/1 97/34/1 
f 88/16/1 87/15/1 95/35/1 98/36/1 
f 75/37/6 99/38/6 76/39/6 
f 78/40/6 100/41/6 99/38/6 75/37/6 
f 80/42/6 100/41/6 78/40/6 
f 97/43/6 101/44/6 100/41/6 80/42/6 
f 84/45/6 101/44/6 97/43/6 
f 83/46/6 102/47/6 101/44/6 84/45/6 
f 86/48/6 102/47/6 83/46/6 
f 88/49/6 103/50/6 102/47/6 86/48/6 
f 98/51/6 103/50/6 88/49/6 
f 104/52/6 103/50/6 98/51/6 
s 1
f 98/36/3 95/35/3 96/53/3 104/54/3 
s 8
f 105/103/1 106/104/1 107/105/1 108/106/1 
s 16
f 106/104/5 109/107/5 110/108/5 107/105/5 
s 32
f 109/109/8 111/110/8 112/111/8 110/112/8 
s 64
f 111/110/6 105/103/6 108/106/6 112/111/6 
s 8
f 113/113/9 114/114/9 115/115/9 116/116/9 
s 16
f 114/114/5 117/117/5 118/118/5 115/115/5 
s 32
f 117/119/8 119/120/8 120/121/8 118/122/8 
s 64
f 119/120/6 113/113/6 116/116/6 120/121/6 
s 2
f 121/55/7 122/56/7 123/57/7 124/58/7 
s 4
f 125/59/3 126/60/3 127/61/3 128/62/3 
s 8
f 121/63/1 124/64/1 126/60/1 125/59/1 
s 16
f 124/65/5 123/66/5 127/61/5 126/60/5 
s 32
f 123/67/8 122/68/8 128/62/8 127/61/8 
s 64
f 122/69/6 121/70/6 125/59/6 128/62/6 
s 2
f 129/55/7 130/56/7 131/57/7 132/58/7 
s 4
f 133/59/3 134/60/3 135/61/3 136/62/3 
s 8
f 129/63/1 132/64/1 134/60/1 133/59/1 
s 16
f 132/65/5 131/66/5 135/61/5 134/60/5 
s 32
f 131/67/8 130/68/8 136/62/8 135/61/8 
s 64
f 130/69/6 129/70/6 133/59/6 136/62/6 
# 82 polygons - 24 triangles

