# 3ds Max Wavefront OBJ Exporter v0.97b - (c)2007 guruware
# File Created: 10.07.2021 19:32:57

#
# object Object023
#

v  -18.1912 11.9959 0.6758
v  -15.5428 11.9959 0.6758
v  -15.5428 11.9959 -0.5146
v  -18.1912 11.9959 -0.5146
v  -18.1912 0.8378 0.6758
v  -15.5428 0.8378 0.6758
v  -15.5428 0.8378 -0.5146
v  -18.1912 0.8378 -0.5146
v  -16.8846 3.6432 -0.5380
v  -16.8846 3.6432 -0.9158
v  -0.8278 3.6432 -0.9158
v  -0.8278 3.6432 -0.5380
v  -16.8846 5.6527 -0.5380
v  -0.8278 5.6527 -0.5380
v  -0.8278 5.6527 -0.9158
v  -16.8846 5.6527 -0.9158
v  -16.7794 6.8606 -0.5380
v  -16.7794 6.8606 -0.9158
v  -0.7225 6.8606 -0.9158
v  -0.7225 6.8606 -0.5380
v  -16.7794 8.8700 -0.5380
v  -0.7225 8.8700 -0.5380
v  -0.7225 8.8700 -0.9158
v  -16.7794 8.8700 -0.9158
v  -18.6198 1.7416 0.9158
v  -15.1858 1.7416 0.9158
v  -15.1858 1.7416 -0.7364
v  -18.6198 1.7416 -0.7364
v  -18.6198 0.0996 0.9158
v  -15.1858 0.0996 0.9158
v  -15.1858 0.0996 -0.7364
v  -18.6198 0.0996 -0.7364
v  -1.9021 11.9959 0.6758
v  0.7464 11.9959 0.6758
v  0.7464 11.9959 -0.5146
v  -1.9021 11.9959 -0.5146
v  -1.9021 0.8378 0.6758
v  0.7464 0.8378 0.6758
v  0.7464 0.8378 -0.5146
v  -1.9021 0.8378 -0.5146
v  -2.3306 1.7416 0.9158
v  1.1033 1.7416 0.9158
v  1.1033 1.7416 -0.7364
v  -2.3306 1.7416 -0.7364
v  -2.3306 0.0996 0.9158
v  1.1033 0.0996 0.9158
v  1.1033 0.0996 -0.7364
v  -2.3306 0.0996 -0.7364
v  -0.1272 3.6432 -0.5380
v  -0.1272 3.6432 -0.9158
v  15.9297 3.6432 -0.9158
v  15.9297 3.6432 -0.5380
v  -0.1272 5.6527 -0.5380
v  15.9297 5.6527 -0.5380
v  15.9297 5.6527 -0.9158
v  -0.1272 5.6527 -0.9158
v  -0.0219 6.8606 -0.5380
v  -0.0219 6.8606 -0.9158
v  16.0349 6.8606 -0.9158
v  16.0349 6.8606 -0.5380
v  -0.0219 8.8700 -0.5380
v  16.0349 8.8700 -0.5380
v  16.0349 8.8700 -0.9158
v  -0.0219 8.8700 -0.9158
v  14.8554 11.9959 0.6758
v  17.5038 11.9959 0.6758
v  17.5038 11.9959 -0.5146
v  14.8554 11.9959 -0.5146
v  14.8554 0.8378 0.6758
v  17.5038 0.8378 0.6758
v  17.5038 0.8378 -0.5146
v  14.8554 0.8378 -0.5146
v  14.4268 1.7416 0.9158
v  17.8608 1.7416 0.9158
v  17.8608 1.7416 -0.7364
v  14.4268 1.7416 -0.7364
v  14.4268 0.0996 0.9158
v  17.8608 0.0996 0.9158
v  17.8608 0.0996 -0.7364
v  14.4268 0.0996 -0.7364
# 80 vertices

vn 0.0000 1.0000 -0.0000
vn 0.0000 0.0000 1.0000
vn 1.0000 0.0000 -0.0000
vn 0.0000 0.0000 -1.0000
vn -1.0000 0.0000 -0.0000
vn 0.0000 -1.0000 -0.0000
# 6 vertex normals

vt 0.0138 0.5668 0.0000
vt 0.0138 0.4486 0.0000
vt 0.0669 0.4486 0.0000
vt 0.0669 0.5668 0.0000
vt 0.5650 0.2772 0.0000
vt 0.5650 0.3954 0.0000
vt 0.0669 0.3954 0.0000
vt 0.0669 0.2772 0.0000
vt 0.5650 0.4486 0.0000
vt 0.5650 0.5668 0.0000
vt 0.5650 0.6199 0.0000
vt 0.0669 0.6199 0.0000
vt 0.8945 0.9674 0.0000
vt 0.8792 0.9674 0.0000
vt 0.8792 0.3170 0.0000
vt 0.8945 0.3170 0.0000
vt 0.9759 0.9674 0.0000
vt 0.9759 0.3170 0.0000
vt 0.9912 0.3170 0.0000
vt 0.9912 0.9674 0.0000
vt 0.7978 0.9674 0.0000
vt 0.7978 0.3170 0.0000
vt 0.8945 0.9827 0.0000
vt 0.9759 0.9827 0.0000
vt 0.6784 0.9680 0.0000
vt 0.6631 0.9680 0.0000
vt 0.6631 0.3176 0.0000
vt 0.6784 0.3176 0.0000
vt 0.7598 0.9680 0.0000
vt 0.7598 0.3176 0.0000
vt 0.7751 0.3176 0.0000
vt 0.7751 0.9680 0.0000
vt 0.5817 0.9680 0.0000
vt 0.5817 0.3176 0.0000
vt 0.6784 0.9833 0.0000
vt 0.7598 0.9833 0.0000
vt 0.4676 0.0968 0.0000
vt 0.6377 0.0968 0.0000
vt 0.6377 0.1786 0.0000
vt 0.4676 0.1786 0.0000
vt 0.4676 0.0155 0.0000
vt 0.6377 0.0155 0.0000
vt 0.7190 0.0968 0.0000
vt 0.7190 0.1786 0.0000
vt 0.6377 0.2599 0.0000
vt 0.4676 0.2599 0.0000
vt 0.3863 0.1786 0.0000
vt 0.3863 0.0968 0.0000
vt 0.0144 0.9330 0.0000
vt 0.0144 0.8148 0.0000
vt 0.0676 0.8148 0.0000
vt 0.0676 0.9330 0.0000
vt 0.5656 0.6434 0.0000
vt 0.5656 0.7616 0.0000
vt 0.0676 0.7616 0.0000
vt 0.0676 0.6434 0.0000
vt 0.5656 0.8148 0.0000
vt 0.5656 0.9330 0.0000
vt 0.5656 0.9861 0.0000
vt 0.0676 0.9861 0.0000
vt 0.1163 0.0981 0.0000
vt 0.2864 0.0981 0.0000
vt 0.2864 0.1799 0.0000
vt 0.1163 0.1799 0.0000
vt 0.1163 0.0168 0.0000
vt 0.2864 0.0168 0.0000
vt 0.3677 0.0981 0.0000
vt 0.3677 0.1799 0.0000
vt 0.2864 0.2612 0.0000
vt 0.1163 0.2612 0.0000
vt 0.0350 0.1799 0.0000
vt 0.0350 0.0981 0.0000
vt 0.9759 0.3017 0.0000
vt 0.8945 0.3017 0.0000
vt 0.7598 0.3023 0.0000
vt 0.6784 0.3023 0.0000
# 76 texture coords

g Object023
s 4
f 1/1/1 2/2/1 3/3/1 4/4/1 
s 8
f 5/5/2 6/6/2 2/7/2 1/8/2 
s 16
f 6/6/3 7/9/3 3/3/3 2/7/3 
s 32
f 7/9/4 8/10/4 4/4/4 3/3/4 
s 64
f 8/10/5 5/11/5 1/12/5 4/4/5 
s 2
f 9/13/6 10/14/6 11/15/6 12/16/6 
s 4
f 13/17/1 14/18/1 15/19/1 16/20/1 
s 8
f 9/13/2 12/16/2 14/18/2 13/17/2 
s 32
f 11/15/4 10/14/4 16/21/4 15/22/4 
s 64
f 10/23/5 9/13/5 13/17/5 16/24/5 
s 2
f 17/25/6 18/26/6 19/27/6 20/28/6 
s 4
f 21/29/1 22/30/1 23/31/1 24/32/1 
s 8
f 17/25/2 20/28/2 22/30/2 21/29/2 
s 32
f 19/27/4 18/26/4 24/33/4 23/34/4 
s 64
f 18/35/5 17/25/5 21/29/5 24/36/5 
s 4
f 25/37/1 26/38/1 27/39/1 28/40/1 
s 8
f 29/41/2 30/42/2 26/38/2 25/37/2 
s 16
f 30/43/3 31/44/3 27/39/3 26/38/3 
s 32
f 31/45/4 32/46/4 28/40/4 27/39/4 
s 64
f 32/47/5 29/48/5 25/37/5 28/40/5 
s 4
f 33/49/1 34/50/1 35/51/1 36/52/1 
s 8
f 37/53/2 38/54/2 34/55/2 33/56/2 
s 16
f 38/54/3 39/57/3 35/51/3 34/55/3 
s 32
f 39/57/4 40/58/4 36/52/4 35/51/4 
s 64
f 40/58/5 37/59/5 33/60/5 36/52/5 
s 4
f 41/61/1 42/62/1 43/63/1 44/64/1 
s 8
f 45/65/2 46/66/2 42/62/2 41/61/2 
s 16
f 46/67/3 47/68/3 43/63/3 42/62/3 
s 32
f 47/69/4 48/70/4 44/64/4 43/63/4 
s 64
f 48/71/5 45/72/5 41/61/5 44/64/5 
s off
f 15/73/3 14/18/3 12/16/3 11/74/3 
f 23/75/3 22/30/3 20/28/3 19/76/3 
s 2
f 49/13/6 50/14/6 51/15/6 52/16/6 
s 4
f 53/17/1 54/18/1 55/19/1 56/20/1 
s 8
f 49/13/2 52/16/2 54/18/2 53/17/2 
s 32
f 51/15/4 50/14/4 56/21/4 55/22/4 
s 64
f 50/23/5 49/13/5 53/17/5 56/24/5 
s 2
f 57/25/6 58/26/6 59/27/6 60/28/6 
s 4
f 61/29/1 62/30/1 63/31/1 64/32/1 
s 8
f 57/25/2 60/28/2 62/30/2 61/29/2 
s 32
f 59/27/4 58/26/4 64/33/4 63/34/4 
s 64
f 58/35/5 57/25/5 61/29/5 64/36/5 
s 4
f 65/49/1 66/50/1 67/51/1 68/52/1 
s 8
f 69/53/2 70/54/2 66/55/2 65/56/2 
s 16
f 70/54/3 71/57/3 67/51/3 66/55/3 
s 32
f 71/57/4 72/58/4 68/52/4 67/51/4 
s 64
f 72/58/5 69/59/5 65/60/5 68/52/5 
s 4
f 73/61/1 74/62/1 75/63/1 76/64/1 
s 8
f 77/65/2 78/66/2 74/62/2 73/61/2 
s 16
f 78/67/3 79/68/3 75/63/3 74/62/3 
s 32
f 79/69/4 80/70/4 76/64/4 75/63/4 
s 64
f 80/71/5 77/72/5 73/61/5 76/64/5 
s off
f 55/73/3 54/18/3 52/16/3 51/74/3 
f 63/75/3 62/30/3 60/28/3 59/76/3 
# 54 polygons

