# 3ds Max Wavefront OBJ Exporter v0.97b - (c)2007 guruware
# File Created: 29.07.2021 21:37:55

#
# object Object049
#

v  -6.1704 5.5987 -4.2024
v  -3.7022 5.5987 -4.2024
v  -3.7022 4.8075 -4.2024
v  -6.1704 4.8075 -4.2024
v  -3.7022 5.5987 4.2024
v  -6.1704 5.5987 4.2024
v  -6.1704 4.8075 4.2024
v  -3.7022 4.8075 4.2024
v  -1.2341 5.5987 -4.2024
v  -1.2341 4.8075 -4.2024
v  -1.2341 5.5987 4.2024
v  -1.2341 4.8075 4.2024
v  1.2341 5.5987 -4.2024
v  1.2341 4.8075 -4.2024
v  1.2341 5.5987 4.2024
v  1.2341 4.8075 4.2024
v  3.7022 5.5987 -4.2024
v  3.7022 4.8075 -4.2024
v  3.7022 5.5987 4.2024
v  3.7022 4.8075 4.2024
v  6.1704 5.5987 -4.2024
v  6.1704 4.8075 -4.2024
v  6.1704 5.5987 4.2024
v  6.1704 4.8075 4.2024
v  -3.2330 4.8075 -3.5247
v  -5.3884 4.8075 -3.5247
v  -5.3884 4.8075 3.5247
v  -3.2330 4.8075 3.5247
v  -1.0777 4.8075 -3.5247
v  -1.0777 4.8075 3.5247
v  1.0777 4.8075 -3.5247
v  1.0777 4.8075 3.5247
v  3.2330 4.8075 -3.5247
v  3.2330 4.8075 3.5247
v  5.3884 4.8075 -3.5247
v  5.3884 4.8075 3.5247
v  -5.3549 7.0067 -3.4830
v  -3.5886 7.0015 -3.4851
v  -3.7022 5.5987 -3.7090
v  -5.5645 5.5987 -3.7090
v  -5.3549 7.0067 3.4830
v  -5.5645 5.5987 3.7090
v  -3.7022 5.5987 3.7090
v  -3.5886 7.0015 3.4851
v  -1.1963 6.9995 -3.4859
v  -1.2341 5.5987 -3.7090
v  -1.2341 5.5987 3.7090
v  -1.1963 6.9995 3.4859
v  1.1962 6.9995 -3.4859
v  1.2341 5.5987 -3.7090
v  1.2341 5.5987 3.7090
v  1.1962 6.9995 3.4859
v  3.5886 7.0015 -3.4851
v  3.7022 5.5987 -3.7090
v  3.7022 5.5987 3.7090
v  3.5886 7.0015 3.4851
v  5.3549 7.0067 -3.4830
v  5.5645 5.5987 -3.7090
v  5.5645 5.5987 3.7090
v  5.3549 7.0067 3.4830
v  -4.9269 8.4204 -2.7528
v  -3.4608 8.4554 -2.7180
v  -4.9269 8.4204 2.7528
v  -3.4608 8.4554 2.7180
v  -1.1536 8.4567 -2.7168
v  -1.1536 8.4567 2.7168
v  1.1536 8.4567 -2.7168
v  1.1536 8.4567 2.7168
v  3.4608 8.4554 -2.7180
v  3.4608 8.4554 2.7180
v  4.9269 8.4204 -2.7528
v  4.9269 8.4204 2.7528
v  -5.0915 0.3253 -1.3831
v  -2.9848 0.3253 -1.3831
v  -2.9848 0.3253 1.3688
v  -5.0915 0.3253 1.3688
v  2.9848 0.3253 -1.3831
v  2.9848 0.3253 1.3688
v  5.0915 0.3253 -1.3831
v  5.0915 0.3253 1.3688
v  6.1237 4.8145 -1.3831
v  6.1237 4.8145 1.3688
v  -6.1237 4.8145 1.3688
v  -6.1237 4.8145 -1.3831
v  -5.0915 0.3253 -4.1350
v  -2.9848 0.3253 -4.1350
v  -2.9848 0.3253 4.1207
v  -5.0915 0.3253 4.1207
v  2.9848 0.3253 -4.1350
v  2.9848 0.3253 4.1207
v  5.0915 0.3253 -4.1350
v  5.0915 0.3253 4.1207
v  6.1237 4.8145 -4.1350
v  6.1237 4.8145 4.1207
v  -6.1237 4.8145 4.1207
v  -6.1237 4.8145 -4.1350
v  -3.5899 4.8145 4.1207
v  3.5899 4.8145 4.1207
v  3.5899 4.8145 -4.1350
v  -3.5899 4.8145 -4.1350
v  -0.9364 3.7153 4.4547
v  -0.9364 3.7153 3.4833
v  -0.3120 3.4530 3.4833
v  -0.3120 3.4530 4.4547
v  0.3120 3.4530 3.4833
v  0.3120 3.4530 4.4547
v  0.9364 3.7153 3.4833
v  0.9364 3.7153 4.4547
v  -0.6531 5.9268 4.4547
v  -0.3120 6.2937 4.4547
v  -0.3120 6.2937 3.4833
v  -0.6531 5.9268 3.4833
v  0.3120 6.2937 4.4547
v  0.3120 6.2937 3.4833
v  0.6531 5.9268 4.4547
v  0.6531 5.9268 3.4833
v  -0.3120 4.1906 4.4547
v  -1.2406 4.1906 4.4547
v  0.3120 4.1906 4.4547
v  1.2406 4.1906 4.4547
v  -0.3120 4.9462 4.4547
v  -1.1477 4.9462 4.4547
v  0.3120 4.9462 4.4547
v  1.1477 4.9462 4.4547
v  -0.6531 5.5045 4.4547
v  -0.3120 5.6491 4.4547
v  0.3120 5.6491 4.4547
v  0.6531 5.5045 4.4547
v  1.2406 4.1906 3.4833
v  1.1477 4.9462 3.4833
v  0.6531 5.5045 3.4833
v  -1.2406 4.1906 3.4833
v  -1.1477 4.9462 3.4833
v  -0.6531 5.5045 3.4833
v  -4.9146 -0.0225 4.0836
v  -3.0832 -0.0225 4.0836
v  -3.0832 0.3625 4.0836
v  -4.9146 0.3625 4.0836
v  -3.0832 -0.0225 2.6505
v  -3.0832 0.3625 2.6505
v  -4.9146 -0.0225 2.6505
v  -4.9146 0.3625 2.6505
v  3.0866 -0.0225 4.0836
v  4.9180 -0.0225 4.0836
v  4.9180 0.3625 4.0836
v  3.0866 0.3625 4.0836
v  4.9180 -0.0225 2.6505
v  4.9180 0.3625 2.6505
v  3.0866 -0.0225 2.6505
v  3.0866 0.3625 2.6505
v  -4.9146 -0.0225 -2.5955
v  -3.0832 -0.0225 -2.5955
v  -3.0832 0.3625 -2.5955
v  -4.9146 0.3625 -2.5955
v  -3.0832 -0.0225 -4.0286
v  -3.0832 0.3625 -4.0286
v  -4.9146 -0.0225 -4.0286
v  -4.9146 0.3625 -4.0286
v  3.0866 -0.0225 -2.5955
v  4.9180 -0.0225 -2.5955
v  4.9180 0.3625 -2.5955
v  3.0866 0.3625 -2.5955
v  4.9180 -0.0225 -4.0286
v  4.9180 0.3625 -4.0286
v  3.0866 -0.0225 -4.0286
v  3.0866 0.3625 -4.0286
# 166 vertices

vn 0.0000 0.0000 -1.0000
vn 0.0000 0.0000 1.0000
vn 1.0000 0.0000 -0.0000
vn -1.0000 0.0000 -0.0000
vn 0.0000 -1.0000 -0.0000
vn -0.0000 -1.0000 -0.0000
vn -0.0000 -1.0000 0.0000
vn 0.0022 0.3498 -0.9368
vn -0.0001 0.3747 -0.9272
vn -0.0003 0.1925 -0.9813
vn 0.0000 0.1933 -0.9811
vn -0.0001 0.3481 0.9374
vn 0.0000 0.1933 0.9811
vn -0.0003 0.1925 0.9813
vn 0.0012 0.3732 0.9277
vn 0.0000 0.3747 -0.9272
vn 0.0000 0.1919 -0.9814
vn -0.0001 0.1919 0.9814
vn -0.0000 0.3746 0.9272
vn 0.0000 0.3746 -0.9272
vn 0.0001 0.1919 -0.9814
vn 0.0000 0.1919 0.9814
vn -0.0000 0.3747 0.9272
vn -0.0012 0.3732 -0.9277
vn 0.0003 0.1925 -0.9813
vn 0.0003 0.1925 0.9813
vn 0.0001 0.3747 0.9272
vn 0.0001 0.3481 -0.9374
vn -0.0022 0.3498 0.9368
vn 0.9891 0.1473 0.0000
vn -0.9891 0.1473 0.0000
vn 0.0000 1.0000 -0.0000
vn 0.0000 1.0000 0.0000
vn 0.0119 0.5329 -0.8461
vn 0.0029 0.5413 -0.8408
vn 0.0059 0.5393 0.8421
vn 0.0055 0.5434 0.8395
vn 0.0001 0.5438 -0.8392
vn 0.0001 0.5439 0.8392
vn -0.0001 0.5439 -0.8392
vn -0.0001 0.5438 0.8392
vn -0.0055 0.5434 -0.8395
vn -0.0029 0.5413 0.8408
vn -0.0059 0.5393 -0.8421
vn -0.0119 0.5329 0.8461
vn 0.9571 0.2898 0.0000
vn -0.9571 0.2898 0.0000
vn 0.9746 -0.2241 -0.0000
vn -0.9746 -0.2241 -0.0000
vn -0.3873 -0.9220 -0.0000
vn -0.1975 -0.9803 -0.0000
vn 0.1975 -0.9803 -0.0000
vn 0.3873 -0.9220 -0.0000
vn -0.7324 0.6809 -0.0000
vn -0.3994 0.9168 -0.0000
vn 0.3994 0.9168 -0.0000
vn 0.7324 0.6809 -0.0000
vn 0.8422 -0.5391 -0.0000
vn 0.9751 -0.2216 -0.0000
vn 0.9116 0.4111 -0.0000
vn 0.9350 0.3546 -0.0000
vn -0.8422 -0.5391 -0.0000
vn -0.9751 -0.2216 -0.0000
vn -0.9116 0.4111 -0.0000
vn -0.9350 0.3546 -0.0000
vn -1.0000 -0.0000 -0.0000
vn -0.0239 0.9997 0.0000
vn -0.0123 0.9999 0.0000
vn -0.0003 1.0000 0.0000
vn 0.0003 1.0000 0.0000
vn 0.0123 0.9999 0.0000
vn 0.0239 0.9997 0.0000
# 72 vertex normals

vt 0.1557 0.9485 0.0000
vt 0.2141 0.9485 0.0000
vt 0.2141 0.9672 0.0000
vt 0.1557 0.9672 0.0000
vt 0.2141 0.6129 0.0000
vt 0.1557 0.6129 0.0000
vt 0.1557 0.5942 0.0000
vt 0.2141 0.5942 0.0000
vt 0.2724 0.9485 0.0000
vt 0.2724 0.9672 0.0000
vt 0.2724 0.6129 0.0000
vt 0.2724 0.5942 0.0000
vt 0.3307 0.9485 0.0000
vt 0.3307 0.9672 0.0000
vt 0.3307 0.6129 0.0000
vt 0.3307 0.5942 0.0000
vt 0.3891 0.9485 0.0000
vt 0.3891 0.9672 0.0000
vt 0.3891 0.6129 0.0000
vt 0.3891 0.5942 0.0000
vt 0.4474 0.9485 0.0000
vt 0.4474 0.9672 0.0000
vt 0.4474 0.6129 0.0000
vt 0.4474 0.5942 0.0000
vt 0.5008 0.9026 0.0000
vt 0.5008 0.6588 0.0000
vt 0.5195 0.6588 0.0000
vt 0.5195 0.9026 0.0000
vt 0.1023 0.6588 0.0000
vt 0.1023 0.9026 0.0000
vt 0.0836 0.9026 0.0000
vt 0.0836 0.6588 0.0000
vt 0.2252 0.9869 0.0000
vt 0.1742 0.9869 0.0000
vt 0.1742 0.5745 0.0000
vt 0.2252 0.5745 0.0000
vt 0.2761 0.9869 0.0000
vt 0.2761 0.5745 0.0000
vt 0.3270 0.9869 0.0000
vt 0.3270 0.5745 0.0000
vt 0.3780 0.9869 0.0000
vt 0.3780 0.5745 0.0000
vt 0.4289 0.9869 0.0000
vt 0.4289 0.5745 0.0000
vt 0.5380 0.6784 0.0000
vt 0.5380 0.8830 0.0000
vt 0.0652 0.8830 0.0000
vt 0.0652 0.6784 0.0000
vt 0.1750 0.9002 0.0000
vt 0.2168 0.9004 0.0000
vt 0.2141 0.9342 0.0000
vt 0.1701 0.9342 0.0000
vt 0.1750 0.6612 0.0000
vt 0.1701 0.6272 0.0000
vt 0.2141 0.6272 0.0000
vt 0.2168 0.6609 0.0000
vt 0.2733 0.9005 0.0000
vt 0.2724 0.9342 0.0000
vt 0.2724 0.6272 0.0000
vt 0.2733 0.6609 0.0000
vt 0.3298 0.9005 0.0000
vt 0.3307 0.9342 0.0000
vt 0.3307 0.6272 0.0000
vt 0.3298 0.6609 0.0000
vt 0.3864 0.9004 0.0000
vt 0.3891 0.9342 0.0000
vt 0.3891 0.6272 0.0000
vt 0.3864 0.6609 0.0000
vt 0.4281 0.9002 0.0000
vt 0.4331 0.9342 0.0000
vt 0.4331 0.6272 0.0000
vt 0.4281 0.6612 0.0000
vt 0.4528 0.6796 0.0000
vt 0.4865 0.6731 0.0000
vt 0.4865 0.8883 0.0000
vt 0.4528 0.8817 0.0000
vt 0.1503 0.8817 0.0000
vt 0.1167 0.8883 0.0000
vt 0.1167 0.6731 0.0000
vt 0.1503 0.6796 0.0000
vt 0.1852 0.8606 0.0000
vt 0.2198 0.8595 0.0000
vt 0.1852 0.7008 0.0000
vt 0.2198 0.7018 0.0000
vt 0.2743 0.8595 0.0000
vt 0.2743 0.7019 0.0000
vt 0.3288 0.8595 0.0000
vt 0.3288 0.7019 0.0000
vt 0.3833 0.8595 0.0000
vt 0.3833 0.7018 0.0000
vt 0.4179 0.8606 0.0000
vt 0.4179 0.7008 0.0000
vt 0.4912 0.2741 0.0000
vt 0.5615 0.2741 0.0000
vt 0.5615 0.3869 0.0000
vt 0.4912 0.3869 0.0000
vt 0.7609 0.2741 0.0000
vt 0.7609 0.3869 0.0000
vt 0.8312 0.2741 0.0000
vt 0.8312 0.3869 0.0000
vt 0.9851 0.2741 0.0000
vt 0.9851 0.3869 0.0000
vt 0.3373 0.3869 0.0000
vt 0.3373 0.2741 0.0000
vt 0.4912 0.1612 0.0000
vt 0.5615 0.1612 0.0000
vt 0.5615 0.4997 0.0000
vt 0.4912 0.4997 0.0000
vt 0.7609 0.1612 0.0000
vt 0.7609 0.4997 0.0000
vt 0.8312 0.1612 0.0000
vt 0.8312 0.4997 0.0000
vt 0.9851 0.1612 0.0000
vt 0.9851 0.4997 0.0000
vt 0.3373 0.4997 0.0000
vt 0.3373 0.1612 0.0000
vt 0.5413 0.6497 0.0000
vt 0.4567 0.6497 0.0000
vt 0.7811 0.6497 0.0000
vt 0.8657 0.6497 0.0000
vt 0.7811 0.0113 0.0000
vt 0.8657 0.0113 0.0000
vt 0.5413 0.0113 0.0000
vt 0.4567 0.0113 0.0000
vt 0.0935 0.3822 0.0000
vt 0.0352 0.3822 0.0000
vt 0.0352 0.3491 0.0000
vt 0.0935 0.3491 0.0000
vt 0.0352 0.3186 0.0000
vt 0.0935 0.3186 0.0000
vt 0.0352 0.2855 0.0000
vt 0.0935 0.2855 0.0000
vt 0.0935 0.5041 0.0000
vt 0.0935 0.5286 0.0000
vt 0.0352 0.5286 0.0000
vt 0.0352 0.5041 0.0000
vt 0.0935 0.5591 0.0000
vt 0.0352 0.5591 0.0000
vt 0.0935 0.1391 0.0000
vt 0.0935 0.1636 0.0000
vt 0.0352 0.1636 0.0000
vt 0.0352 0.1391 0.0000
vt 0.1512 0.4277 0.0000
vt 0.1756 0.4175 0.0000
vt 0.1756 0.4463 0.0000
vt 0.1393 0.4463 0.0000
vt 0.2000 0.4175 0.0000
vt 0.2000 0.4463 0.0000
vt 0.2245 0.4277 0.0000
vt 0.2364 0.4463 0.0000
vt 0.1756 0.4759 0.0000
vt 0.1429 0.4759 0.0000
vt 0.2000 0.4759 0.0000
vt 0.2327 0.4759 0.0000
vt 0.1623 0.4978 0.0000
vt 0.1756 0.5034 0.0000
vt 0.2000 0.5034 0.0000
vt 0.2134 0.4978 0.0000
vt 0.1756 0.5286 0.0000
vt 0.1623 0.5143 0.0000
vt 0.2000 0.5286 0.0000
vt 0.2134 0.5143 0.0000
vt 0.0352 0.2579 0.0000
vt 0.0935 0.2579 0.0000
vt 0.0352 0.2207 0.0000
vt 0.0935 0.2207 0.0000
vt 0.0352 0.1842 0.0000
vt 0.0935 0.1842 0.0000
vt 0.0935 0.4098 0.0000
vt 0.0352 0.4098 0.0000
vt 0.0935 0.4470 0.0000
vt 0.0352 0.4470 0.0000
vt 0.0935 0.4835 0.0000
vt 0.0352 0.4835 0.0000
vt 0.1710 0.0730 0.0000
vt 0.2310 0.0730 0.0000
vt 0.2310 0.0856 0.0000
vt 0.1710 0.0856 0.0000
vt 0.2887 0.0730 0.0000
vt 0.2887 0.0856 0.0000
vt 0.0532 0.0730 0.0000
vt 0.1133 0.0730 0.0000
vt 0.1133 0.0856 0.0000
vt 0.0532 0.0856 0.0000
# 184 texture coords

g Object049
s off
f 1/1/1 2/2/1 3/3/1 4/4/1 
f 5/5/2 6/6/2 7/7/2 8/8/2 
f 2/2/1 9/9/1 10/10/1 3/3/1 
f 11/11/2 5/5/2 8/8/2 12/12/2 
f 9/9/1 13/13/1 14/14/1 10/10/1 
f 15/15/2 11/11/2 12/12/2 16/16/2 
f 13/13/1 17/17/1 18/18/1 14/14/1 
f 19/19/2 15/15/2 16/16/2 20/20/2 
f 17/17/1 21/21/1 22/22/1 18/18/1 
f 23/23/2 19/19/2 20/20/2 24/24/2 
f 21/25/3 23/26/3 24/27/3 22/28/3 
f 6/29/4 1/30/4 4/31/4 7/32/4 
f 4/4/5 3/3/5 25/33/5 26/34/5 
f 8/8/5 7/7/5 27/35/5 28/36/5 
f 3/3/5 10/10/5 29/37/5 25/33/5 
f 12/12/5 8/8/5 28/36/5 30/38/5 
f 10/10/5 14/14/5 31/39/5 29/37/5 
f 16/16/5 12/12/5 30/38/5 32/40/5 
f 14/14/6 18/18/6 33/41/6 31/39/6 
f 20/20/5 16/16/5 32/40/5 34/42/5 
f 18/18/5 22/22/5 35/43/5 33/41/5 
f 24/24/7 20/20/7 34/42/7 36/44/7 
f 22/28/5 24/27/5 36/45/5 35/46/5 
f 7/32/5 4/31/5 26/47/5 27/48/5 
s 12
f 37/49/8 38/50/9 39/51/10 40/52/11 
f 41/53/12 42/54/13 43/55/14 44/56/15 
f 45/57/16 46/58/17 39/51/10 38/50/9 
f 44/56/15 43/55/14 47/59/18 48/60/19 
f 49/61/20 50/62/21 46/58/17 45/57/16 
f 48/60/19 47/59/18 51/63/22 52/64/23 
f 53/65/24 54/66/25 50/62/21 49/61/20 
f 52/64/23 51/63/22 55/67/26 56/68/27 
f 57/69/28 58/70/11 54/66/25 53/65/24 
f 55/67/26 59/71/13 60/72/29 56/68/27 
s 3
f 60/73/30 59/74/30 58/75/30 57/76/30 
f 37/77/31 40/78/31 42/79/31 41/80/31 
s off
f 2/2/32 1/1/32 40/52/32 39/51/32 
f 1/30/33 6/29/33 42/79/33 40/78/33 
f 6/6/32 5/5/32 43/55/32 42/54/32 
f 5/5/32 11/11/32 47/59/32 43/55/32 
f 11/11/32 15/15/32 51/63/32 47/59/32 
f 15/15/32 19/19/32 55/67/32 51/63/32 
f 19/19/32 23/23/32 59/71/32 55/67/32 
f 23/26/33 21/25/33 58/75/33 59/74/33 
f 21/21/32 17/17/32 54/66/32 58/70/32 
f 17/17/32 13/13/32 50/62/32 54/66/32 
f 13/13/32 9/9/32 46/58/32 50/62/32 
f 9/9/32 2/2/32 39/51/32 46/58/32 
s 8
f 37/49/8 61/81/34 62/82/35 38/50/9 
f 63/83/36 41/53/12 44/56/15 64/84/37 
f 38/50/9 62/82/35 65/85/38 45/57/16 
f 64/84/37 44/56/15 48/60/19 66/86/39 
f 45/57/16 65/85/38 67/87/40 49/61/20 
f 66/86/39 48/60/19 52/64/23 68/88/41 
f 49/61/20 67/87/40 69/89/42 53/65/24 
f 68/88/41 52/64/23 56/68/27 70/90/43 
f 53/65/24 69/89/42 71/91/44 57/69/28 
f 70/90/43 56/68/27 60/72/29 72/92/45 
s off
f 57/76/46 71/91/46 72/92/46 60/73/46 
f 41/80/47 63/83/47 61/81/47 37/77/47 
s 2
f 73/93/5 74/94/5 75/95/5 76/96/5 
f 74/94/5 77/97/5 78/98/5 75/95/5 
f 77/97/5 79/99/5 80/100/5 78/98/5 
s 16
f 79/99/48 81/101/48 82/102/48 80/100/48 
s 64
f 76/96/49 83/103/49 84/104/49 73/93/49 
s 2
f 85/105/5 86/106/5 74/94/5 73/93/5 
f 87/107/5 88/108/5 76/96/5 75/95/5 
f 86/106/5 89/109/5 77/97/5 74/94/5 
f 90/110/5 87/107/5 75/95/5 78/98/5 
f 89/109/5 91/111/5 79/99/5 77/97/5 
f 92/112/5 90/110/5 78/98/5 80/100/5 
s 16
f 91/111/48 93/113/48 81/101/48 79/99/48 
f 94/114/48 92/112/48 80/100/48 82/102/48 
s 64
f 88/108/49 95/115/49 83/103/49 76/96/49 
f 96/116/49 85/105/49 73/93/49 84/104/49 
s 8
f 88/108/2 87/107/2 97/117/2 95/118/2 
f 87/107/2 90/110/2 98/119/2 97/117/2 
f 90/110/2 92/112/2 94/120/2 98/119/2 
s 32
f 91/111/1 89/109/1 99/121/1 93/122/1 
f 89/109/1 86/106/1 100/123/1 99/121/1 
f 86/106/1 85/105/1 96/124/1 100/123/1 
s 2
f 101/125/50 102/126/50 103/127/51 104/128/51 
f 104/128/51 103/127/51 105/129/52 106/130/52 
f 106/130/52 105/129/52 107/131/53 108/132/53 
s 4
f 109/133/54 110/134/55 111/135/55 112/136/54 
f 110/134/55 113/137/56 114/138/56 111/135/55 
f 113/139/56 115/140/57 116/141/57 114/142/56 
s 8
f 101/143/2 104/144/2 117/145/2 118/146/2 
f 104/144/2 106/147/2 119/148/2 117/145/2 
f 106/147/2 108/149/2 120/150/2 119/148/2 
f 118/146/2 117/145/2 121/151/2 122/152/2 
f 117/145/2 119/148/2 123/153/2 121/151/2 
f 119/148/2 120/150/2 124/154/2 123/153/2 
f 125/155/2 122/152/2 121/151/2 126/156/2 
f 121/151/2 123/153/2 127/157/2 126/156/2 
f 123/153/2 124/154/2 128/158/2 127/157/2 
f 125/155/2 126/156/2 110/159/2 109/160/2 
f 126/156/2 127/157/2 113/161/2 110/159/2 
f 127/157/2 128/158/2 115/162/2 113/161/2 
s 16
f 108/132/58 107/131/58 129/163/59 120/164/59 
f 120/164/59 129/163/59 130/165/60 124/166/60 
f 124/166/60 130/165/60 131/167/61 128/168/61 
f 128/168/61 131/167/61 116/141/3 115/140/3 
s 64
f 102/126/62 101/125/62 118/169/63 132/170/63 
f 132/170/63 118/169/63 122/171/64 133/172/64 
f 133/172/64 122/171/64 125/173/65 134/174/65 
f 134/174/65 125/173/65 109/133/66 112/136/66 
s 8
f 135/175/2 136/176/2 137/177/2 138/178/2 
s 16
f 136/176/3 139/179/3 140/180/3 137/177/3 
s 32
f 139/181/1 141/182/1 142/183/1 140/184/1 
s 64
f 141/182/4 135/175/4 138/178/4 142/183/4 
s 1
f 61/81/67 63/83/67 64/84/68 62/82/68 
f 62/82/68 64/84/68 66/86/69 65/85/69 
f 65/85/69 66/86/69 68/88/70 67/87/70 
f 67/87/70 68/88/70 70/90/71 69/89/71 
f 69/89/71 70/90/71 72/92/72 71/91/72 
s 8
f 143/175/2 144/176/2 145/177/2 146/178/2 
s 16
f 144/176/3 147/179/3 148/180/3 145/177/3 
s 32
f 147/181/1 149/182/1 150/183/1 148/184/1 
s 64
f 149/182/4 143/175/4 146/178/4 150/183/4 
s 8
f 151/175/2 152/176/2 153/177/2 154/178/2 
s 16
f 152/176/3 155/179/3 156/180/3 153/177/3 
s 32
f 155/181/1 157/182/1 158/183/1 156/184/1 
s 64
f 157/182/4 151/175/4 154/178/4 158/183/4 
s 8
f 159/175/2 160/176/2 161/177/2 162/178/2 
s 16
f 160/176/3 163/179/3 164/180/3 161/177/3 
s 32
f 163/181/1 165/182/1 166/183/1 164/184/1 
s 64
f 165/182/4 159/175/4 162/178/4 166/183/4 
# 128 polygons

